<svg xmlns="http://www.w3.org/2000/svg" xmlns:xlink="http://www.w3.org/1999/xlink" viewBox="0 0 268.17 214.01"><defs><style>.cls-1{fill:url(#Degradado_sin_nombre_24);}.cls-2{fill:url(#Degradado_sin_nombre_24-2);}.cls-3{fill:url(#Degradado_sin_nombre_24-3);}.cls-4{fill:url(#Degradado_sin_nombre_24-4);}.cls-5{fill:url(#Degradado_sin_nombre_24-5);}.cls-6{fill:#34c759;}.cls-7{fill:url(#Degradado_sin_nombre_13);}.cls-8{fill:url(#Degradado_sin_nombre_24-6);}.cls-9{fill:url(#Degradado_sin_nombre_22);}.cls-10{fill:url(#Degradado_sin_nombre_22-2);}.cls-11{fill:url(#Degradado_sin_nombre_22-3);}</style><linearGradient id="Degradado_sin_nombre_24" x1="219.4" y1="181" x2="209.91" y2="336.55" gradientUnits="userSpaceOnUse"><stop offset="0.31" stop-color="#02a49d"/><stop offset="0.87"/></linearGradient><linearGradient id="Degradado_sin_nombre_24-2" x1="231.78" y1="181.76" x2="222.3" y2="337.31" xlink:href="#Degradado_sin_nombre_24"/><linearGradient id="Degradado_sin_nombre_24-3" x1="245.9" y1="182.62" x2="236.41" y2="338.17" xlink:href="#Degradado_sin_nombre_24"/><linearGradient id="Degradado_sin_nombre_24-4" x1="248.13" y1="182.75" x2="238.65" y2="338.31" xlink:href="#Degradado_sin_nombre_24"/><linearGradient id="Degradado_sin_nombre_24-5" x1="215.43" y1="131.81" x2="334.09" y2="131.81" xlink:href="#Degradado_sin_nombre_24"/><linearGradient id="Degradado_sin_nombre_13" x1="149.22" y1="186.39" x2="176.25" y2="64.03" gradientUnits="userSpaceOnUse"><stop offset="0" stop-color="#02a49d"/><stop offset="0.09" stop-color="#049891"/><stop offset="1"/></linearGradient><linearGradient id="Degradado_sin_nombre_24-6" x1="207.02" y1="146.1" x2="308.98" y2="259.92" xlink:href="#Degradado_sin_nombre_24"/><linearGradient id="Degradado_sin_nombre_22" x1="154.38" y1="268.08" x2="162.92" y2="80.75" gradientUnits="userSpaceOnUse"><stop offset="0" stop-color="#02a49d"/><stop offset="1"/></linearGradient><linearGradient id="Degradado_sin_nombre_22-2" x1="219.7" y1="242.37" x2="249.58" y2="115.74" xlink:href="#Degradado_sin_nombre_22"/><linearGradient id="Degradado_sin_nombre_22-3" x1="140.72" y1="223.73" x2="170.59" y2="97.11" xlink:href="#Degradado_sin_nombre_22"/></defs><title>RivasL</title><g id="Capa_3" data-name="Capa 3"><path class="cls-1" d="M236.45,218.47s-23.64,19-25,67.52c0,0-10.29,1.65-17.73,17.89C193.73,303.88,185,258.86,236.45,218.47Z" transform="translate(-65.91 -92.99)"/><path class="cls-2" d="M226.88,240.4s-9.08,18.36,7.38,49.64c0,0-13.72,4.64-13.08,17C221.18,307,208.17,277.82,226.88,240.4Z" transform="translate(-65.91 -92.99)"/><path class="cls-3" d="M235.6,229.08s-9,28.54,16.66,50c0,0-9.83,7.63-7.09,16.51C245.17,295.63,217.83,256.52,235.6,229.08Z" transform="translate(-65.91 -92.99)"/><path class="cls-4" d="M239.11,227s-3.21,5,11.58,25.33c0,0-5.47,3.67-4.08,13.27C246.61,265.59,234.85,246.27,239.11,227Z" transform="translate(-65.91 -92.99)"/><path class="cls-5" d="M334.09,93s-47.41,1.24-74.86,11.22c0,0-41.41-14.87-43.8,27.59,0,0,5.57-26,26.31-24.27,0,0,18.77,1.53,1.58,16.21,0,0-31.18,29.65,27.42,46.89C270.74,170.63,215.54,101.69,334.09,93Z" transform="translate(-65.91 -92.99)"/><circle class="cls-6" cx="178.4" cy="21.84" r="1.27"/><path class="cls-7" d="M128.57,165c80.17-18.15,103.27,23.27,103.27,23.27l-1.33.77,1.44-.16S225,118.22,80.24,121.68C80.24,121.68,97.49,145.47,128.57,165Z" transform="translate(-65.91 -92.99)"/><path class="cls-8" d="M223.94,149.43s30.14,49.19,22.52,75.86c0,0,23.55-21.82,23.9-43.65C270.36,181.64,245.07,183,223.94,149.43Z" transform="translate(-65.91 -92.99)"/><path class="cls-9" d="M231,194.92S173,154.08,81.15,266.09C81.15,266.09,178.78,274.24,231,194.92Z" transform="translate(-65.91 -92.99)"/><path class="cls-10" d="M231.09,192.72l.75-.43-.2-.33C231.46,192.22,231.27,192.47,231.09,192.72Z" transform="translate(-65.91 -92.99)"/><path class="cls-11" d="M230.93,190.9c-6.16-8.85-45.55-55.11-165,.33,0,0,26.2,15.45,63.5,20.71C188.18,168.17,224.6,187,230.93,190.9Z" transform="translate(-65.91 -92.99)"/></g></svg>